<svg xmlns="http://www.w3.org/2000/svg" xmlns:xlink="http://www.w3.org/1999/xlink" xml:space="preserve" width="672" height="336" viewBox="105 105 125 125"><defs><path id="a" d="M0 252h252V0H0Z"/></defs><defs><clipPath id="b" clipPathUnits="userSpaceOnUse"><use xlink:href="#a"/></clipPath><clipPath id="c" clipPathUnits="userSpaceOnUse"><use xlink:href="#a"/></clipPath></defs><path fill="#fff" d="M266.589 128.005h.778l.75 1.97.749-1.97h.784v2.754h-.517v-2.198h-.016l-.818 2.198h-.357l-.821-2.198h-.014v2.198h-.518Zm-1.843.438h-.83v-.438h2.22v.438h-.83v2.316h-.56z"/><g clip-path="url(#b)" transform="matrix(1.33333 0 0 -1.33333 0 336)"><path fill="#fff" d="M60.201 155.78h-14.57v-11.726h-.006c.012-.318.12-1.123.87-1.924.398-.426 1.025-.879 1.977-1.255v-2.165c-1.495.466-2.686 1.158-3.532 2.091-1.172 1.29-1.349 2.625-1.362 3.253h-.009v11.726h-4.16a2.559 2.559 0 0 1-2.563-2.56v-20.794a2.56 2.56 0 0 1 2.562-2.56h9.334l.008 8.008h.002v2.894h.003l.003 3.322.003.2c.041 1.088 1.876 4.017 5.194 4.021 1.545-.026 4.592-1.026 5.211-4.604l.011-.094c.008-.096.172-2.396-1.332-4.04-.876-.957-2.1-1.476-3.636-1.557v-.015a22.958 22.958 0 0 0-3.134.163v2.067c.81-.112 1.74-.18 2.815-.184 1.086.02 1.911.322 2.447.906.817.894.812 2.223.805 2.462-.5 2.687-2.933 2.844-3.212 2.852-2.265 0-3.176-1.943-3.134-2.334l.004-2.929h-.003v-2.808l-.012-8.33h9.416a2.56 2.56 0 0 1 2.561 2.56v20.794a2.559 2.559 0 0 1-2.56 2.56m8.981-.266h2.555v-25.549h-2.555zm6.801-6.975h2.555v-18.574h-2.555zm0 6.975h2.555v-3.557h-2.555zm7.284-9.01H80.54v2.035h2.727v1.52c0 5.73 4.522 5.904 6.527 5.904v-2.038c-1.278-.068-4.006-.068-4.006-4.108v-1.278h4.006v-2.035h-4.006v-16.54h-2.521Zm23.825-5.939c-.175 3.246-3.315 6.422-7.148 6.318-4.004 0-6.972-2.934-7.215-6.318zm-14.396-2.035c.135-4.662 4.107-6.907 7.248-6.87 2.866 0 5.179 1.414 6.387 3.829h2.658c-.863-2.001-2.174-3.522-3.762-4.524-1.554-1-3.384-1.518-5.283-1.518-6.456 0-9.806 5.145-9.806 9.77 0 5.457 4.213 9.842 9.772 9.842 2.622 0 5.04-.932 6.8-2.624 2.14-2.072 3.177-4.937 2.9-7.905zm34.763.929c0 2.729-1.966 5.837-5.8 5.837-1.655 0-3.071-.656-4.106-1.727-1.004-1.037-1.623-2.522-1.623-4.178 0-1.623.619-3.074 1.656-4.109a5.783 5.783 0 0 1 4.108-1.692c3.455 0 5.766 2.727 5.766 5.835zm-15.846 9.46h4.246v-2.763c1.348 1.901 3.556 3.351 6.699 3.351 6.628 0 9.424-5.629 9.424-10.221 0-5.386-3.831-9.909-9.39-9.909-3.693 0-5.696 1.901-6.456 3.108v-9.15h-4.523zm21.786 0h4.281v-2.484c.827 1.69 2.384 3.037 5.248 3.072v-4.558h-.205c-3.179 0-4.802-1.484-4.802-4.765v-10.22H133.4Zm14.12-9.494c0-3.315 2.521-5.766 5.63-5.766 3.106 0 5.593 2.45 5.593 5.8 0 3.35-2.487 5.8-5.593 5.8-3.109 0-5.63-2.45-5.63-5.8Zm-4.52.069c0 4.834 3.555 9.978 10.15 9.978 6.596 0 10.15-5.144 10.15-10.013 0-4.902-3.554-10.047-10.15-10.047-6.595 0-10.15 5.145-10.15 10.047zm25.928-.069c0-3.315 2.522-5.766 5.629-5.766 3.107 0 5.594 2.45 5.594 5.8 0 3.35-2.487 5.8-5.594 5.8s-5.63-2.45-5.63-5.8Zm-4.521.069c0 4.834 3.556 9.978 10.15 9.978 6.595 0 10.149-5.144 10.149-10.013 0-4.902-3.554-10.047-10.15-10.047-6.593 0-10.15 5.145-10.15 10.047zm22.683 5.938h-2.35v3.487h2.35v1.073c0 5.626 4.28 5.97 7.526 6.004v-3.485c-1.14 0-3.005 0-3.005-2.658v-.934h3.005v-3.487h-3.005v-15.467h-4.521ZM88.045 113.97l.475 2.623h.53l-.637-3.448h-.504l-1.312 2.628-.481-2.628h-.531l.639 3.448h.516zm1.748.898c-.136-.717.288-1.304 1.024-1.304.75 0 1.366.63 1.486 1.3.126.676-.256 1.31-1.01 1.31-.751 0-1.375-.606-1.5-1.3Zm-.551-.018c.201 1.085 1.17 1.808 2.139 1.808 1.03 0 1.658-.797 1.476-1.79-.185-.99-1.113-1.788-2.147-1.788-1.039 0-1.645.814-1.468 1.766zm4.101 1.743h.559l.182-2.698 1.174 2.698h.414l.187-2.702 1.17 2.702h.559l-1.59-3.448h-.508l-.181 2.614-1.152-2.614h-.521Zm5.562 0h.56l.181-2.698 1.174 2.698h.415l.187-2.702 1.17 2.702h.558l-1.589-3.448h-.508l-.18 2.614-1.152-2.614H99.2Zm4.641 0h.55l-.638-3.448h-.55zm1.626-.485h-.792l.089.484h2.134l-.09-.484h-.791l-.55-2.964h-.55zm1.16-2.964.639 3.448h.549l-.27-1.453h1.486l.27 1.454h.551l-.639-3.449h-.55l.279 1.51h-1.485l-.28-1.51Zm100.425 17.825c-.015.542-.203.929-.557 1.155-.372.216-.8.203-1.278-.044-.48-.254-.886-.655-1.205-1.188-.324-.546-.463-1.077-.412-1.573a1.8 1.8 0 0 1 .17-.726c.094-.19.23-.335.405-.437l.014-.008c.355-.207.78-.191 1.259.05.479.226.884.625 1.2 1.179.32.516.454 1.052.404 1.592m-3.716-2.417c-.384 1.416-1.044 2.29-1.954 2.6l-.017.002c-.129.022-.26.033-.391.037-.914.009-1.89-.465-2.897-1.416a12.669 12.669 0 0 1-1.041-1.125c-.514-.69-.839-1.302-.967-1.834-.113-.682.07-1.17.548-1.45.443-.257 1.147-.333 2.098-.223.473.078.901.009 1.275-.21.048-.027.096-.058.145-.091.107-.07.215-.137.32-.196.611-.36 1.156-.571 1.613-.626.461-.068.831.018 1.101.252.367.317.547.884.55 1.74-.062.984-.19 1.84-.383 2.54m-1.569 4.65c.02-.624.24-1.062.655-1.306h.002l.002-.003c.413-.22.899-.195 1.435.08.56.25 1.014.686 1.354 1.297.353.625.52 1.234.49 1.816-.028.611-.25 1.042-.655 1.28l-.013.007c-.401.226-.883.216-1.443-.03l-.01-.005c-.528-.306-.957-.742-1.313-1.34a3.33 3.33 0 0 1-.387-.918 3.098 3.098 0 0 1-.117-.878m-3.48-2.292c.08.455.021.932-.182 1.45-.018.044-.038.088-.054.132-.013.024-.023.05-.035.075-.23.551-.583.967-1.052 1.241l-.015.008c-.44.304-.863.374-1.252.216-.389-.175-.629-.535-.71-1.07-.07-.536.021-1.096.273-1.668.15-.329.322-.6.517-.817a2.33 2.33 0 0 1 .53-.43 1.778 1.778 0 0 1 .693-.281 1.06 1.06 0 0 1 .591.076c.38.168.614.528.696 1.067m-.135 4.134c.017-.368.081-.689.191-.979.086-.284.216-.55.391-.795l.027-.037c.048-.061.092-.121.142-.174.127-.144.263-.255.403-.338.217-.126.452-.184.702-.169.47.043.853.336 1.145.863.324.517.461 1.133.403 1.831a4.095 4.095 0 0 1-.15.85c-.104.356-.25.661-.445.932-.366.491-.796.724-1.277.695-.453-.033-.85-.309-1.18-.825l-.006-.003v-.006c-.268-.536-.382-1.158-.346-1.845m15.82-20.257c-.17.396-.521.642-1.05.731-.54.083-1.1.006-1.678-.232-.586-.24-1.015-.583-1.273-1.01a1.782 1.782 0 0 1-.296-.686 1.02 1.02 0 0 1 .062-.592l.005-.014c.16-.38.51-.619 1.04-.713.517-.105 1.08-.03 1.668.225.562.221.994.571 1.276 1.034.309.441.394.862.246 1.257m-4.681 2.281-.009.013a2.522 2.522 0 0 1-.295.263c-.724.557-1.79.762-3.164.604a14.03 14.03 0 0 1-1.51-.277c-.823-.245-1.453-.542-1.869-.892-.502-.479-.647-.98-.428-1.49.2-.47.716-.95 1.542-1.435.426-.218.728-.53.9-.932.021-.048.04-.102.06-.159.042-.12.09-.237.135-.347.278-.655.586-1.15.918-1.469.328-.329.678-.483 1.034-.457.483.033.966.38 1.482 1.064.54.827.95 1.588 1.217 2.263.536 1.364.532 2.462-.013 3.251m1.281-.022.001-.004c.2-.43.603-.697 1.196-.8.6-.134 1.225-.056 1.864.23.655.288 1.153.678 1.48 1.159.342.509.422.986.24 1.419l-.008.013c-.182.42-.578.703-1.174.839l-.009.002c-.606.073-1.212-.018-1.855-.285a3.334 3.334 0 0 1-.858-.504 3.183 3.183 0 0 1-.62-.632c-.358-.51-.445-.996-.257-1.437m-6.005 2.18.034-.086c.093-.22.211-.408.354-.552.146-.152.322-.25.517-.296.405-.093.807.054 1.197.438.338.319.575.735.724 1.27.014.047.024.093.034.14.007.026.012.053.018.08.145.579.113 1.125-.099 1.626l-.004.013c-.175.509-.468.818-.88.924-.412.092-.817-.052-1.207-.433-.376-.387-.64-.89-.779-1.498a3.183 3.183 0 0 1-.076-.967 2.36 2.36 0 0 1 .167-.66m3.872 1.128.003-.048c0-.077 0-.151.008-.226.016-.187.058-.358.12-.51.098-.231.253-.417.46-.555.403-.244.887-.244 1.434.007.57.218 1.048.63 1.421 1.225.16.253.291.512.39.769.128.349.195.68.202 1.014 0 .609-.203 1.057-.607 1.318-.383.248-.867.264-1.441.05l-.005-.002-.005-.004c-.536-.268-1-.697-1.383-1.27a3.165 3.165 0 0 1-.432-.897 2.778 2.778 0 0 1-.165-.871m-87.056-9.162c0 1.773-1.256 3.787-3.788 3.787-1.076 0-2.014-.418-2.692-1.116-.66-.678-1.057-1.636-1.057-2.712 0-1.077.398-2.014 1.077-2.69a3.794 3.794 0 0 1 2.69-1.098c2.194 0 3.77 1.694 3.77 3.808zm-9.511 5.402h1.974V114.7c.817 1.295 2.213 2.212 4.147 2.212 3.728 0 5.484-3.11 5.484-5.803 0-3.07-2.214-5.682-5.464-5.682-2.253 0-3.59 1.237-4.067 2.114v-5.743h-2.074zm21.845-4.466c-.1 1.437-1.535 3.051-3.588 3.012-2.114 0-3.49-1.536-3.59-3.012zm-7.217-1.614c.1-2.194 2.013-3.31 3.648-3.31 1.457 0 2.533.697 3.13 1.834h2.154c-.52-1.196-1.277-2.094-2.194-2.691-.917-.618-1.993-.918-3.09-.918-3.548 0-5.743 2.851-5.743 5.722 0 3.111 2.434 5.763 5.724 5.763 1.555 0 2.97-.579 4.006-1.596 1.277-1.295 1.815-2.99 1.636-4.804Zm11.656 4.466h-1.953v1.615h1.953v3.907h2.073v-3.907h2.094v-1.615h-2.094v-9.231h-2.073Zm14.807-3.788c0 1.773-1.257 3.787-3.788 3.787-1.077 0-2.015-.418-2.692-1.116-.658-.678-1.057-1.636-1.057-2.712 0-1.077.399-2.014 1.076-2.69a3.798 3.798 0 0 1 2.691-1.098c2.194 0 3.77 1.694 3.77 3.808zm-9.512 5.402h1.975V114.7c.817 1.295 2.213 2.212 4.146 2.212 3.729 0 5.484-3.11 5.484-5.803 0-3.07-2.213-5.682-5.463-5.682-2.253 0-3.589 1.237-4.067 2.114v-5.743h-2.075zm13.292.001h1.954v-1.596c.618 1.277 1.755 1.895 3.231 1.915v-2.074h-.14c-1.955 0-2.972-1.076-2.972-3.23v-5.862h-2.073Zm7.071-5.443c0-2.154 1.636-3.77 3.709-3.77 2.074 0 3.708 1.616 3.708 3.79 0 2.172-1.634 3.788-3.708 3.788-2.073 0-3.71-1.616-3.71-3.788Zm-2.072.04c0 2.89 2.133 5.722 5.78 5.722 3.649 0 5.783-2.832 5.783-5.742 0-2.912-2.134-5.723-5.782-5.723s-5.781 2.811-5.781 5.723zm14.706-.04c0-2.154 1.635-3.77 3.71-3.77 2.072 0 3.707 1.616 3.707 3.79 0 2.172-1.635 3.788-3.708 3.788-2.074 0-3.709-1.616-3.709-3.788Zm-2.074.04c0 2.89 2.134 5.722 5.783 5.722 3.648 0 5.781-2.832 5.781-5.742 0-2.912-2.133-5.723-5.78-5.723-3.65 0-5.784 2.811-5.784 5.723zm13.471 3.788h-1.474v1.615h1.475v.737c0 3.27 2.532 3.43 4.067 3.45v-1.635c-.698-.02-1.994-.02-1.994-1.914v-.638h1.994v-1.615h-1.994v-9.231h-2.073Zm-42.267-18.872h-.844v3.186h-1.219v.684h3.284v-.684h-1.22Zm5.707 3.186h-2.144v-.813h1.97v-.685h-1.97v-1.003h2.24v-.685h-3.066v3.871h2.97Zm4.373-.582c-.067.231-.197.668-.894.668-.405 0-1.002-.259-1.002-1.353 0-.695.288-1.32 1.002-1.32.466 0 .792.253.894.728h.844c-.168-.841-.742-1.429-1.755-1.429-1.073 0-1.844.695-1.844 2.032 0 1.353.816 2.043 1.856 2.043 1.21 0 1.697-.799 1.743-1.369Zm3.317-.868v-1.735h-.844v3.87h.845V98.51h1.574v1.466h.844v-3.87h-.844v1.735zm6.725 2.135h.787v-3.87h-.844l-1.648 2.76h-.01v-2.76h-.788v3.87h.89l1.601-2.694h.012Zm4.373-3.288c.456 0 1.097.27 1.097 1.354 0 1.082-.64 1.352-1.097 1.352-.455 0-1.096-.27-1.096-1.352 0-1.085.641-1.355 1.096-1.355m0 3.392c.534 0 1.94-.222 1.94-2.037 0-1.818-1.406-2.04-1.94-2.04s-1.94.223-1.94 2.04c0 1.814 1.406 2.036 1.94 2.036m4.476-3.271h2.008v-.701h-2.852v3.87h.844Zm5.086-.119c.457 0 1.099.27 1.099 1.354 0 1.082-.642 1.352-1.098 1.352-.455 0-1.096-.27-1.096-1.352 0-1.085.64-1.355 1.096-1.355m0 3.392c.534 0 1.94-.222 1.94-2.037 0-1.818-1.406-2.04-1.94-2.04s-1.94.223-1.94 2.04c0 1.814 1.406 2.036 1.94 2.036m5.527-1.887h1.688v-2.086h-.563l-.084.485c-.213-.237-.523-.587-1.26-.587-.972 0-1.856.668-1.856 2.026 0 1.052.607 2.05 1.964 2.05h.01c1.238 0 1.727-.773 1.772-1.306h-.843c0 .15-.288.637-.884.637-.6 0-1.159-.4-1.159-1.39 0-1.058.603-1.333 1.177-1.333.184 0 .803.07.977.852h-.939Zm5.392-2.086h-.843v1.461l-1.394 2.41h.996l.838-1.683.798 1.682h.957l-1.352-2.42Z"/></g><path fill="#5a7b97" d="M266.589 128.005h.778l.75 1.97.749-1.97h.784v2.754h-.517v-2.198h-.016l-.818 2.198h-.357l-.821-2.198h-.014v2.198h-.518Zm-1.843.438h-.83v-.438h2.22v.438h-.83v2.316h-.56z"/><g clip-path="url(#c)" transform="matrix(1.33333 0 0 -1.33333 0 336)"><path fill="#5a7b97" d="M60.201 155.78h-14.57v-11.726h-.006c.012-.318.12-1.123.87-1.924.398-.426 1.025-.879 1.977-1.255v-2.165c-1.495.466-2.686 1.158-3.532 2.091-1.172 1.29-1.349 2.625-1.362 3.253h-.009v11.726h-4.16a2.559 2.559 0 0 1-2.563-2.56v-20.794a2.56 2.56 0 0 1 2.562-2.56h9.334l.008 8.008h.002v2.894h.003l.003 3.322.003.2c.041 1.088 1.876 4.017 5.194 4.021 1.545-.026 4.592-1.026 5.211-4.604l.011-.094c.008-.096.172-2.396-1.332-4.04-.876-.957-2.1-1.476-3.636-1.557v-.015a22.958 22.958 0 0 0-3.134.163v2.067c.81-.112 1.74-.18 2.815-.184 1.086.02 1.911.322 2.447.906.817.894.812 2.223.805 2.462-.5 2.687-2.933 2.844-3.212 2.852-2.265 0-3.176-1.943-3.134-2.334l.004-2.929h-.003v-2.808l-.012-8.33h9.416a2.56 2.56 0 0 1 2.561 2.56v20.794a2.559 2.559 0 0 1-2.56 2.56"/><path fill="#231f20" d="M69.183 155.514h2.555v-25.549h-2.555zm6.801-6.975h2.555v-18.574h-2.555zm0 6.975h2.555v-3.557h-2.555zm7.284-9.01H80.54v2.035h2.727v1.52c0 5.73 4.522 5.904 6.527 5.904v-2.038c-1.278-.068-4.006-.068-4.006-4.108v-1.278h4.006v-2.035h-4.006v-16.54h-2.521Zm23.825-5.939c-.175 3.246-3.315 6.422-7.148 6.318-4.004 0-6.972-2.934-7.215-6.318zm-14.396-2.035c.135-4.662 4.107-6.907 7.248-6.87 2.866 0 5.179 1.414 6.387 3.829h2.658c-.863-2.001-2.174-3.522-3.762-4.524-1.554-1-3.384-1.518-5.283-1.518-6.456 0-9.806 5.145-9.806 9.77 0 5.457 4.213 9.842 9.772 9.842 2.622 0 5.04-.932 6.8-2.624 2.14-2.072 3.177-4.937 2.9-7.905z"/><path fill="#5a7b97" d="M127.46 139.459c0 2.729-1.966 5.837-5.8 5.837-1.655 0-3.071-.656-4.106-1.727-1.004-1.037-1.623-2.522-1.623-4.178 0-1.623.619-3.074 1.656-4.109a5.783 5.783 0 0 1 4.108-1.692c3.455 0 5.766 2.727 5.766 5.835zm-15.846 9.46h4.246v-2.763c1.348 1.901 3.556 3.351 6.699 3.351 6.628 0 9.424-5.629 9.424-10.221 0-5.386-3.831-9.909-9.39-9.909-3.693 0-5.696 1.901-6.456 3.108v-9.15h-4.523zm21.786 0h4.281v-2.484c.827 1.69 2.384 3.037 5.248 3.072v-4.558h-.205c-3.179 0-4.802-1.484-4.802-4.765v-10.22H133.4Zm14.12-9.494c0-3.315 2.521-5.766 5.63-5.766 3.106 0 5.593 2.45 5.593 5.8 0 3.35-2.487 5.8-5.593 5.8-3.109 0-5.63-2.45-5.63-5.8Zm-4.52.069c0 4.834 3.555 9.978 10.15 9.978 6.596 0 10.15-5.144 10.15-10.013 0-4.902-3.554-10.047-10.15-10.047-6.595 0-10.15 5.145-10.15 10.047zm25.928-.069c0-3.315 2.522-5.766 5.629-5.766 3.107 0 5.594 2.45 5.594 5.8 0 3.35-2.487 5.8-5.594 5.8s-5.63-2.45-5.63-5.8Zm-4.521.069c0 4.834 3.556 9.978 10.15 9.978 6.595 0 10.149-5.144 10.149-10.013 0-4.902-3.554-10.047-10.15-10.047-6.593 0-10.15 5.145-10.15 10.047zm22.683 5.938h-2.35v3.487h2.35v1.073c0 5.626 4.28 5.97 7.526 6.004v-3.485c-1.14 0-3.005 0-3.005-2.658v-.934h3.005v-3.487h-3.005v-15.467h-4.521ZM88.045 113.97l.475 2.623h.53l-.637-3.448h-.504l-1.312 2.628-.481-2.628h-.531l.639 3.448h.516zm1.748.898c-.136-.717.288-1.304 1.024-1.304.75 0 1.366.63 1.486 1.3.126.676-.256 1.31-1.01 1.31-.751 0-1.375-.606-1.5-1.3Zm-.551-.018c.201 1.085 1.17 1.808 2.139 1.808 1.03 0 1.658-.797 1.476-1.79-.185-.99-1.113-1.788-2.147-1.788-1.039 0-1.645.814-1.468 1.766zm4.101 1.743h.559l.182-2.698 1.174 2.698h.414l.187-2.702 1.17 2.702h.559l-1.59-3.448h-.508l-.181 2.614-1.152-2.614h-.521Zm5.562 0h.56l.181-2.698 1.174 2.698h.415l.187-2.702 1.17 2.702h.558l-1.589-3.448h-.508l-.18 2.614-1.152-2.614H99.2Zm4.641 0h.55l-.638-3.448h-.55zm1.626-.485h-.792l.089.484h2.134l-.09-.484h-.791l-.55-2.964h-.55zm1.16-2.964.639 3.448h.549l-.27-1.453h1.486l.27 1.454h.551l-.639-3.449h-.55l.279 1.51h-1.485l-.28-1.51Z"/><path fill="#231f20" d="M206.757 130.969c-.015.542-.203.929-.557 1.155-.372.216-.8.203-1.278-.044-.48-.254-.886-.655-1.205-1.188-.324-.546-.463-1.077-.412-1.573a1.8 1.8 0 0 1 .17-.726c.094-.19.23-.335.405-.437l.014-.008c.355-.207.78-.191 1.259.05.479.226.884.625 1.2 1.179.32.516.454 1.052.404 1.592m-3.716-2.417c-.384 1.416-1.044 2.29-1.954 2.6l-.017.002c-.129.022-.26.033-.391.037-.914.009-1.89-.465-2.897-1.416a12.669 12.669 0 0 1-1.041-1.125c-.514-.69-.839-1.302-.967-1.834-.113-.682.07-1.17.548-1.45.443-.257 1.147-.333 2.098-.223.473.078.901.009 1.275-.21.048-.027.096-.058.145-.091.107-.07.215-.137.32-.196.611-.36 1.156-.571 1.613-.626.461-.068.831.018 1.101.252.367.317.547.884.55 1.74-.062.984-.19 1.84-.383 2.54m-1.569 4.65c.02-.624.24-1.062.655-1.306h.002l.002-.003c.413-.22.899-.195 1.435.08.56.25 1.014.686 1.354 1.297.353.625.52 1.234.49 1.816-.028.611-.25 1.042-.655 1.28l-.013.007c-.401.226-.883.216-1.443-.03l-.01-.005c-.528-.306-.957-.742-1.313-1.34a3.33 3.33 0 0 1-.387-.918 3.098 3.098 0 0 1-.117-.878m-3.48-2.292c.08.455.021.932-.182 1.45-.018.044-.038.088-.054.132-.013.024-.023.05-.035.075-.23.551-.583.967-1.052 1.241l-.015.008c-.44.304-.863.374-1.252.216-.389-.175-.629-.535-.71-1.07-.07-.536.021-1.096.273-1.668.15-.329.322-.6.517-.817a2.33 2.33 0 0 1 .53-.43 1.778 1.778 0 0 1 .693-.281 1.06 1.06 0 0 1 .591.076c.38.168.614.528.696 1.067m-.135 4.134c.017-.368.081-.689.191-.979.086-.284.216-.55.391-.795l.027-.037c.048-.061.092-.121.142-.174.127-.144.263-.255.403-.338.217-.126.452-.184.702-.169.47.043.853.336 1.145.863.324.517.461 1.133.403 1.831a4.095 4.095 0 0 1-.15.85c-.104.356-.25.661-.445.932-.366.491-.796.724-1.277.695-.453-.033-.85-.309-1.18-.825l-.006-.003v-.006c-.268-.536-.382-1.158-.346-1.845m15.82-20.257c-.17.396-.521.642-1.05.731-.54.083-1.1.006-1.678-.232-.586-.24-1.015-.583-1.273-1.01a1.782 1.782 0 0 1-.296-.686 1.02 1.02 0 0 1 .062-.592l.005-.014c.16-.38.51-.619 1.04-.713.517-.105 1.08-.03 1.668.225.562.221.994.571 1.276 1.034.309.441.394.862.246 1.257m-4.681 2.281-.009.013a2.522 2.522 0 0 1-.295.263c-.724.557-1.79.762-3.164.604a14.03 14.03 0 0 1-1.51-.277c-.823-.245-1.453-.542-1.869-.892-.502-.479-.647-.98-.428-1.49.2-.47.716-.95 1.542-1.435.426-.218.728-.53.9-.932.021-.048.04-.102.06-.159.042-.12.09-.237.135-.347.278-.655.586-1.15.918-1.469.328-.329.678-.483 1.034-.457.483.033.966.38 1.482 1.064.54.827.95 1.588 1.217 2.263.536 1.364.532 2.462-.013 3.251m1.281-.022.001-.004c.2-.43.603-.697 1.196-.8.6-.134 1.225-.056 1.864.23.655.288 1.153.678 1.48 1.159.342.509.422.986.24 1.419l-.008.013c-.182.42-.578.703-1.174.839l-.009.002c-.606.073-1.212-.018-1.855-.285a3.334 3.334 0 0 1-.858-.504 3.183 3.183 0 0 1-.62-.632c-.358-.51-.445-.996-.257-1.437m-6.005 2.18.034-.086c.093-.22.211-.408.354-.552.146-.152.322-.25.517-.296.405-.093.807.054 1.197.438.338.319.575.735.724 1.27.014.047.024.093.034.14.007.026.012.053.018.08.145.579.113 1.125-.099 1.626l-.004.013c-.175.509-.468.818-.88.924-.412.092-.817-.052-1.207-.433-.376-.387-.64-.89-.779-1.498a3.183 3.183 0 0 1-.076-.967 2.36 2.36 0 0 1 .167-.66m3.872 1.128.003-.048c0-.077 0-.151.008-.226.016-.187.058-.358.12-.51.098-.231.253-.417.46-.555.403-.244.887-.244 1.434.007.57.218 1.048.63 1.421 1.225.16.253.291.512.39.769.128.349.195.68.202 1.014 0 .609-.203 1.057-.607 1.318-.383.248-.867.264-1.441.05l-.005-.002-.005-.004c-.536-.268-1-.697-1.383-1.27a3.165 3.165 0 0 1-.432-.897 2.778 2.778 0 0 1-.165-.871m-87.056-9.162c0 1.773-1.256 3.787-3.788 3.787-1.076 0-2.014-.418-2.692-1.116-.66-.678-1.057-1.636-1.057-2.712 0-1.077.398-2.014 1.077-2.69a3.794 3.794 0 0 1 2.69-1.098c2.194 0 3.77 1.694 3.77 3.808zm-9.511 5.402h1.974V114.7c.817 1.295 2.213 2.212 4.147 2.212 3.728 0 5.484-3.11 5.484-5.803 0-3.07-2.214-5.682-5.464-5.682-2.253 0-3.59 1.237-4.067 2.114v-5.743h-2.074zm21.845-4.466c-.1 1.437-1.535 3.051-3.588 3.012-2.114 0-3.49-1.536-3.59-3.012zm-7.217-1.614c.1-2.194 2.013-3.31 3.648-3.31 1.457 0 2.533.697 3.13 1.834h2.154c-.52-1.196-1.277-2.094-2.194-2.691-.917-.618-1.993-.918-3.09-.918-3.548 0-5.743 2.851-5.743 5.722 0 3.111 2.434 5.763 5.724 5.763 1.555 0 2.97-.579 4.006-1.596 1.277-1.295 1.815-2.99 1.636-4.804Zm11.656 4.466h-1.953v1.615h1.953v3.907h2.073v-3.907h2.094v-1.615h-2.094v-9.231h-2.073Zm14.807-3.788c0 1.773-1.257 3.787-3.788 3.787-1.077 0-2.015-.418-2.692-1.116-.658-.678-1.057-1.636-1.057-2.712 0-1.077.399-2.014 1.076-2.69a3.798 3.798 0 0 1 2.691-1.098c2.194 0 3.77 1.694 3.77 3.808zm-9.512 5.402h1.975V114.7c.817 1.295 2.213 2.212 4.146 2.212 3.729 0 5.484-3.11 5.484-5.803 0-3.07-2.213-5.682-5.463-5.682-2.253 0-3.589 1.237-4.067 2.114v-5.743h-2.075zm13.292.001h1.954v-1.596c.618 1.277 1.755 1.895 3.231 1.915v-2.074h-.14c-1.955 0-2.972-1.076-2.972-3.23v-5.862h-2.073Zm7.071-5.443c0-2.154 1.636-3.77 3.709-3.77 2.074 0 3.708 1.616 3.708 3.79 0 2.172-1.634 3.788-3.708 3.788-2.073 0-3.71-1.616-3.71-3.788Zm-2.072.04c0 2.89 2.133 5.722 5.78 5.722 3.649 0 5.783-2.832 5.783-5.742 0-2.912-2.134-5.723-5.782-5.723s-5.781 2.811-5.781 5.723zm14.706-.04c0-2.154 1.635-3.77 3.71-3.77 2.072 0 3.707 1.616 3.707 3.79 0 2.172-1.635 3.788-3.708 3.788-2.074 0-3.709-1.616-3.709-3.788Zm-2.074.04c0 2.89 2.134 5.722 5.783 5.722 3.648 0 5.781-2.832 5.781-5.742 0-2.912-2.133-5.723-5.78-5.723-3.65 0-5.784 2.811-5.784 5.723zm13.471 3.788h-1.474v1.615h1.475v.737c0 3.27 2.532 3.43 4.067 3.45v-1.635c-.698-.02-1.994-.02-1.994-1.914v-.638h1.994v-1.615h-1.994v-9.231h-2.073Z"/><path fill="#5a7b97" d="M145.283 96.106h-.844v3.186h-1.219v.684h3.284v-.684h-1.22Zm5.707 3.186h-2.144v-.813h1.97v-.685h-1.97v-1.003h2.24v-.685h-3.066v3.871h2.97Zm4.373-.582c-.067.231-.197.668-.894.668-.405 0-1.002-.259-1.002-1.353 0-.695.288-1.32 1.002-1.32.466 0 .792.253.894.728h.844c-.168-.841-.742-1.429-1.755-1.429-1.073 0-1.844.695-1.844 2.032 0 1.353.816 2.043 1.856 2.043 1.21 0 1.697-.799 1.743-1.369Zm3.317-.868v-1.735h-.844v3.87h.845V98.51h1.574v1.466h.844v-3.87h-.844v1.735zm6.725 2.135h.787v-3.87h-.844l-1.648 2.76h-.01v-2.76h-.788v3.87h.89l1.601-2.694h.012Zm4.373-3.288c.456 0 1.097.27 1.097 1.354 0 1.082-.64 1.352-1.097 1.352-.455 0-1.096-.27-1.096-1.352 0-1.085.641-1.355 1.096-1.355m0 3.392c.534 0 1.94-.222 1.94-2.037 0-1.818-1.406-2.04-1.94-2.04s-1.94.223-1.94 2.04c0 1.814 1.406 2.036 1.94 2.036m4.476-3.271h2.008v-.701h-2.852v3.87h.844Zm5.086-.119c.457 0 1.099.27 1.099 1.354 0 1.082-.642 1.352-1.098 1.352-.455 0-1.096-.27-1.096-1.352 0-1.085.64-1.355 1.096-1.355m0 3.392c.534 0 1.94-.222 1.94-2.037 0-1.818-1.406-2.04-1.94-2.04s-1.94.223-1.94 2.04c0 1.814 1.406 2.036 1.94 2.036m5.527-1.887h1.688v-2.086h-.563l-.084.485c-.213-.237-.523-.587-1.26-.587-.972 0-1.856.668-1.856 2.026 0 1.052.607 2.05 1.964 2.05h.01c1.238 0 1.727-.773 1.772-1.306h-.843c0 .15-.288.637-.884.637-.6 0-1.159-.4-1.159-1.39 0-1.058.603-1.333 1.177-1.333.184 0 .803.07.977.852h-.939Zm5.392-2.086h-.843v1.461l-1.394 2.41h.996l.838-1.683.798 1.682h.957l-1.352-2.42Z"/></g></svg>