<svg id="_C" xmlns="http://www.w3.org/2000/svg" viewBox="0 0 179.49 54.38"><defs><style>.cls-1{fill:#717073}</style></defs><path class="cls-1" d="M85.67 23.03c-.58.84-1.79 2.09-4.32 2.09s-3.65-1.11-4.22-1.95c-.85-1.22-.85-2.7-.85-4.09V7.57c0-.54.03-1.08.07-1.62.07-.91.24-3.92 3.27-4.9.68-.24 1.25-.3 2-.3 1.75 0 2.7.54 3.31 1.05.51.41.88.91 1.11 1.49.47 1.08.5 2.16.5 3.31v3.04h-3.17V5.96c0-.51.17-2.47-1.93-2.47-.67 0-1.01.2-1.28.41-.78.68-.71 1.69-.71 2.6v13.17c0 .27 0 .54.04.81.04.64.13 1.92 1.89 1.92.2 0 .74.04 1.22-.33.81-.58.78-1.59.78-2.47v-4.63h3.17v4.46c0 1.32-.1 2.46-.87 3.61ZM96.71 22.83c-.37 1.04-1.32 2.29-3.82 2.29-.33 0-1.48.04-2.46-.6-1.62-1.05-1.55-2.9-1.55-4.56v-8.34c0-1.52-.03-3.1 1.25-4.22.51-.47.98-.64 1.22-.71.37-.13.81-.23 1.65-.23.5 0 2.93-.04 3.71 2.09.27.71.27 1.39.27 2.13v10.16c0 .74-.03 1.29-.27 1.99Zm-2.4-12.42c0-.91-.14-1.72-1.32-1.72-.11 0-.54 0-.85.2-.47.34-.57.77-.57 1.76v10.63c0 .37-.14 1.62 1.28 1.62 1.28 0 1.45-.81 1.45-1.83V10.41ZM110.21 24.83V10.57c0-.34 0-.88-.17-1.18-.27-.51-.91-.47-1.05-.47-.27 0-.61.07-.85.24-.57.41-.54 1.05-.54 1.66v14.01h-2.7V10.65c0-.88-.1-1.76-1.25-1.76-1.49 0-1.38 1.65-1.38 1.89v14.05h-2.7V6.73h2.67v1.25c.64-.98 1.32-1.56 2.57-1.56 1.79.04 2.33 1.18 2.57 1.79.34-.54 1.01-1.75 2.8-1.75.27 0 1.05.03 1.72.54 1.11.84 1.08 2.13 1.08 3.34v14.49h-2.77ZM126.38 24.83V10.57c0-.34 0-.88-.17-1.18-.27-.51-.91-.47-1.05-.47-.27 0-.61.07-.84.24-.58.41-.54 1.05-.54 1.66v14.01h-2.7V10.65c0-.88-.1-1.76-1.25-1.76-1.48 0-1.38 1.65-1.38 1.89v14.05h-2.7V6.73h2.67v1.25c.64-.98 1.32-1.56 2.57-1.56 1.79.04 2.33 1.18 2.57 1.79.34-.54 1.01-1.75 2.8-1.75.27 0 1.05.03 1.72.54 1.11.84 1.08 2.13 1.08 3.34v14.49h-2.77ZM139.55 22.8c-.78 2.26-3.24 2.33-3.81 2.33-.54 0-3-.03-3.71-2.22-.17-.54-.2-.98-.2-1.52v-9.7c0-.68.04-1.32.1-1.99.07-.51.2-1.65 1.35-2.46.44-.34 1.28-.78 2.6-.78.54 0 2.91.1 3.71 2.19.24.68.27 1.18.27 1.89v5.84h-5.37v5.1c0 .37-.03 1.45 1.25 1.45 1.45-.03 1.35-1.25 1.35-1.66V18.1h2.77v2.36c0 .27 0 1.45-.31 2.33Zm-2.43-12.46c0-.88-.13-1.65-1.25-1.65-.1 0-.5.03-.81.2-.61.4-.58 1.15-.58 1.76v3.51h2.63v-3.81ZM147.05 9.19c-.24 0-.74 0-1.22.47-.74.78-.74 2.03-.74 3.04v12.12h-2.71V6.73h2.77v2.06c.58-1.22 1.21-2.26 2.77-2.26.27 0 .51.04.75.07v3.14c-.27-.21-.78-.54-1.62-.54ZM155.42 13.24v-3.07s0-.47-.07-.71c-.27-.81-1.05-.74-1.28-.74-.34 0-.57.03-.84.2-.54.34-.54 1.01-.54 1.59v10.97c0 .54.1 1.01.67 1.28.27.1.58.14.64.14.14 0 .41 0 .71-.14.71-.27.71-1.11.71-1.75v-3.38h2.7v3.31c0 .24.03.91-.13 1.59-.17.61-.71 1.89-2.33 2.4-.3.1-.88.2-1.66.2-.44 0-2.87.07-3.68-1.89-.24-.54-.31-.91-.31-1.99V10.54c0-.91.03-1.21.2-1.69.74-2.33 3.24-2.43 3.88-2.43.24 0 1.04 0 1.82.3 1.32.47 1.76 1.38 1.96 1.92.27.71.27 1.35.27 2.1v2.5h-2.73ZM160.55 24.83V6.73h2.7v18.1h-2.7Zm.04-20.16V1.09h2.7v3.58h-2.7ZM171.52 24.83c-.23-.51-.3-.61-.47-1.45-.71 1.04-1.32 1.66-2.63 1.66-2.63 0-2.53-2.33-2.53-3.04v-3.24c0-1.79.1-2.36 1.65-3.34l2.6-1.62c.71-.43.84-.67 1.08-1.04v-2.7c0-.41 0-1.39-1.18-1.39s-1.18 1.01-1.18 1.35v2.53h-2.77v-2.23c0-.58.03-1.15.2-1.69.34-1.01 1.32-2.19 3.71-2.19.34 0 1.76 0 2.77.81.24.17.67.54.91 1.21.24.61.24 1.21.24 1.86V21.8c0 .34-.1 1.86.47 3.04h-2.87Zm-.34-8.95q-.23.2-.61.47l-1.05.71c-.2.13-.3.2-.47.41-.4.44-.47.85-.47 1.42v1.86c0 .77 0 1.14.13 1.48.17.41.51.65.95.65.37 0 .64-.17.75-.24.71-.57.77-1.72.77-2.53v-4.22ZM176.72 24.83V.98h2.77v23.85h-2.77ZM76.35 53.77V29.94h7.87v2.97h-4.69v6.99h4.19v2.97h-4.15v7.9h4.66v3h-7.87ZM86.21 53.77V29.94h2.77v23.83h-2.77ZM99.47 51.74c-.78 2.26-3.24 2.33-3.82 2.33-.54 0-3-.04-3.71-2.23-.17-.54-.2-.98-.2-1.52v-9.69c0-.67.03-1.31.1-1.99.07-.5.21-1.65 1.35-2.46.44-.34 1.28-.78 2.6-.78.54 0 2.9.1 3.71 2.19.24.68.27 1.18.27 1.89v5.84H94.4v5.1c0 .37-.03 1.45 1.25 1.45 1.45-.03 1.35-1.25 1.35-1.65v-3.17h2.77v2.36c0 .27 0 1.46-.3 2.33Zm-2.43-12.45c0-.88-.13-1.66-1.25-1.66-.1 0-.51.03-.81.2-.61.4-.57 1.15-.57 1.75v3.52h2.63v-3.82ZM107.61 42.19v-3.07s0-.47-.07-.71c-.27-.81-1.05-.75-1.28-.75-.34 0-.58.04-.85.21-.54.34-.54 1.01-.54 1.58v10.98c0 .54.1 1.01.67 1.28.27.1.58.14.64.14.13 0 .4 0 .71-.14.71-.27.71-1.12.71-1.76v-3.38h2.7v3.31c0 .23.04.91-.13 1.58-.17.61-.71 1.89-2.33 2.4-.3.1-.88.2-1.65.2-.44 0-2.87.07-3.68-1.89-.23-.54-.3-.91-.3-1.99V39.47c0-.91.03-1.21.2-1.69.74-2.33 3.24-2.43 3.89-2.43.24 0 1.05 0 1.82.3 1.32.47 1.76 1.38 1.96 1.92.27.71.27 1.35.27 2.1v2.5h-2.74ZM117.61 53.81c-.37.07-.75.17-1.56.17-.1 0-1.15 0-1.76-.27-1.18-.47-1.15-1.68-1.15-2.73v-13h-1.62v-2.3h1.69V31.8h2.7v3.88h1.52v2.3h-1.55v12.49c0 .47-.07 1.28 1.18 1.28h.57l-.03 2.06ZM123.58 38.14c-.23 0-.74 0-1.21.47-.74.78-.74 2.02-.74 3.04v12.12h-2.7v-18.1h2.77v2.06c.58-1.22 1.22-2.26 2.77-2.26.27 0 .51.03.74.07v3.14c-.27-.2-.77-.54-1.62-.54ZM126.79 53.77v-18.1h2.7v18.1h-2.7Zm.03-20.16v-3.58h2.7v3.58h-2.7ZM137.59 42.19v-3.07s0-.47-.07-.71c-.27-.81-1.05-.75-1.28-.75-.34 0-.58.04-.84.21-.54.34-.54 1.01-.54 1.58v10.98c0 .54.1 1.01.67 1.28.27.1.57.14.64.14.14 0 .41 0 .71-.14.71-.27.71-1.12.71-1.76v-3.38h2.7v3.31c0 .23.04.91-.13 1.58-.17.61-.71 1.89-2.33 2.4-.31.1-.88.2-1.66.2-.44 0-2.87.07-3.68-1.89-.24-.54-.3-.91-.3-1.99V39.47c0-.91.03-1.21.2-1.69.74-2.33 3.24-2.43 3.88-2.43.24 0 1.05 0 1.83.3 1.31.47 1.75 1.38 1.96 1.92.27.71.27 1.35.27 2.1v2.5h-2.74ZM27.19 0C12.2 0 0 12.2 0 27.19s12.2 27.19 27.19 27.19h33.27c3.41 0 6.18-2.77 6.18-6.18s-2.77-6.18-6.18-6.18H27.19c-8.18 0-14.83-6.65-14.83-14.83s6.65-14.82 14.83-14.82h33.27c3.41 0 6.18-2.77 6.18-6.18S63.87.01 60.46.01H27.19Z"/><path class="cls-1" d="M35.14 21.1c-3.41 0-6.18 2.77-6.18 6.18s2.77 6.18 6.18 6.18h25.5c3.41 0 6.18-2.77 6.18-6.18s-2.77-6.18-6.18-6.18h-25.5Z"/><g><path class="cls-1" d="m143.96 36.07-.03 3.16h-.48l.04-3.16h-1.08v-.41h2.63v.41h-1.08ZM148.36 39.23l.1-3-1.17 3h-.37l-1.07-2.96.02 2.96h-.47l.04-3.58h.62l1.06 2.93 1.14-2.93h.62l-.04 3.58h-.48Z"/></g></svg>