<svg version="1.1" id="Layer_1" xmlns="http://www.w3.org/2000/svg" x="0" y="0" viewBox="0 0 218.1 90.8" style="enable-background:new 0 0 218.1 90.8" xml:space="preserve"><style>.st1{fill:#54565a}.st2{fill:#ff4713}</style><path d="M216.4 78.4c0 5.9-4.8 10.7-10.7 10.7H12.4c-5.9 0-10.7-4.8-10.7-10.7v-66c0-5.9 4.8-10.7 10.7-10.7h193.3c5.9 0 10.7 4.8 10.7 10.7v66z" style="fill:#fff;stroke:#54565a;stroke-width:3.3145;stroke-miterlimit:10"/><path class="st1" d="m129.9 73.8-2.6-1.6 14.6-24.4h2.9l15.1 24-2.7 1.6-13.8-22z"/><path class="st1" d="M141.6 59.5h3.7v3.3h-3.7zM35.4 73.3h4.4v-25h-4.4v10.3h-13V48.3H18v25h4.4V62.4h13zM54.1 73.8c7.2 0 10.8-4.1 10.8-10.3V48.3h-4.4v15c0 4-2.2 6.6-6.4 6.6s-6.4-2.6-6.4-6.6v-15h-4.4v15.1c-.1 6.2 3.5 10.4 10.8 10.4M68.3 48.3h12.3c4.6 0 7.1 2.8 7.1 6.4 0 3.1-2 5.2-4.3 5.7 2.7.4 4.8 3.1 4.8 6.1 0 3.9-2.6 6.7-7.3 6.7H68.3V48.3zm11.4 10.4c2.2 0 3.5-1.4 3.5-3.2s-1.3-3.3-3.5-3.3h-7v6.5h7zm.2 10.8c2.4 0 3.8-1.3 3.8-3.5 0-1.9-1.3-3.4-3.8-3.4h-7.2v6.9h7.2zM90.6 69.8c2.1 2.3 5.2 4 9.6 4 6.7 0 9.2-3.7 9.2-7.3 0-5.2-4.6-6.5-8.7-7.6-3.2-.9-6.1-1.6-6.1-4.1 0-2.4 2.1-4 5.1-4 2.7 0 5.4.9 7.2 3l1.9-2.3c-2.1-2.2-5.1-3.5-8.9-3.5-4.9 0-8.6 2.8-8.6 6.9 0 4.9 4.4 6 8.5 7.1 3.3.9 6.3 1.7 6.3 4.7 0 1.9-1.4 4.3-5.9 4.3-3.5 0-6.2-1.7-7.9-3.6l-1.7 2.4zM113.3 48.3h10c5 0 7.8 3.4 7.8 7.5s-2.9 7.5-7.8 7.5h-6.9v9.9h-3.1V48.3zm14.7 7.6c0-2.8-2-4.8-5-4.8h-6.6v9.5h6.6c2.9 0 5-1.9 5-4.7M171.4 73.8c4.4 0 7.4-2.1 9.5-4.9l-2.7-1.5c-1.4 2.1-4 3.6-6.9 3.6-5.5 0-9.6-4.2-9.6-10.1 0-5.9 4.2-10.1 9.6-10.1 2.8 0 5.4 1.5 6.9 3.6l2.6-1.5c-2-2.8-5.1-4.9-9.5-4.9-7.2 0-12.9 5.2-12.9 12.9s5.8 12.9 13 12.9M183.6 73.3H200v-2.8h-13.3v-8.6h13v-2.7h-13v-8.1H200v-2.8h-16.4z"/><g><path class="st2" d="M143.6 34.9c-4.5 0-8.2 3.3-8.9 7.6l2.9 1.2c.2-3.2 2.8-5.7 6-5.7s5.8 2.5 6 5.7l2.9-1.2c-.7-4.3-4.4-7.6-8.9-7.6z"/><path class="st2" d="M143.6 23.2c-9.4 0-17.3 6.2-19.9 14.7l2.8 1.2c2.1-7.4 9-12.9 17.1-12.9s14.9 5.4 17.1 12.9l2.8-1.2c-2.6-8.4-10.5-14.7-19.9-14.7z"/><path class="st2" d="M143.6 15.3c12.6 0 23.4 8.2 27.2 19.6l2.8-1.2c-4.3-12.5-16.1-21.5-30-21.5s-25.8 9-30 21.5l2.8 1.2c3.8-11.3 14.6-19.6 27.2-19.6z"/></g></svg>